<?xml version="1.0" encoding="utf-8"?>
<!-- Generator: Adobe Illustrator 15.0.0, SVG Export Plug-In . SVG Version: 6.00 Build 0)  -->
<!DOCTYPE svg PUBLIC "-//W3C//DTD SVG 1.1//EN" "http://www.w3.org/Graphics/SVG/1.1/DTD/svg11.dtd">
<svg version="1.1" xmlns="http://www.w3.org/2000/svg" xmlns:xlink="http://www.w3.org/1999/xlink" x="0px" y="0px" width="1543px"
	 height="804px" viewBox="0 0 1543 804" enable-background="new 0 0 1543 804" xml:space="preserve">
<g id="Layer_1">
	<g>
		<g>
			<path fill="#A9AAAC" d="M17.535,743.363L0,791.487h5.695l4.736-13.438h19.198l4.544,13.438h6.655l-17.022-48.124H17.535z
				 M12.095,773.312l8.127-23.166l7.808,23.166H12.095z M69.693,758.594c-2.24-1.729-5.375-2.688-9.151-2.688
				c-8.128,0-13.184,4.288-13.184,11.136c0,4.48,2.112,7.872,5.76,9.663c-1.92,0.385-6.271,1.792-6.271,6.271
				c0,4.288,4.032,5.568,4.224,5.632c-0.32,0.064-6.784,1.024-6.784,7.359c0,5.504,4.799,8.832,15.294,8.832
				c11.647,0,17.983-4.096,17.983-11.392c0-8.768-9.151-8.768-12.991-8.768h-6.527c-1.92,0-5.12,0-5.12-3.136
				c0-2.367,1.792-3.392,2.88-3.84c1.408,0.385,3.008,0.576,4.736,0.576c8.063,0,13.183-4.287,13.183-11.135
				c0-2.561-0.768-4.8-2.047-6.592c0.384-0.256,1.343-0.704,3.328-0.704c1.536,0,2.688,0.256,2.688,0.256v-5.248h-0.768
				C74.813,754.817,71.229,754.817,69.693,758.594z M53.502,789.632h10.431c2.305,0,7.424,0.063,7.424,4.479
				c0,4.031-4.16,6.335-11.583,6.335c-6.72,0-9.599-1.919-9.599-5.504C50.175,791.104,53.502,789.632,53.502,789.632z
				 M60.542,773.889c-4.544,0-6.976-2.56-6.976-6.783c0-4.288,2.432-6.848,6.976-6.848c4.479,0,6.975,2.56,6.975,6.848
				C67.517,771.329,65.021,773.889,60.542,773.889z M107.529,761.922c-2.24-3.904-6.208-6.017-11.519-6.017
				c-9.6,0-15.231,6.912-15.231,18.303c0,5.824,1.472,10.496,4.416,13.504c2.432,2.495,6.208,4.288,12.543,4.288
				c5.823,0,10.11-1.537,10.11-1.537v-4.927h-0.511c0,0-4.543,1.855-9.28,1.855c-7.231,0-10.879-4.288-10.879-11.839h22.59
				C109.769,771.009,109.769,765.825,107.529,761.922z M87.179,771.2c0.512-6.655,3.072-10.814,8.64-10.814
				c5.311,0,7.615,3.84,7.615,10.814H87.179z M133.468,755.97c-6.08,0-9.216,2.624-10.175,6.72l-1.28-5.951h-4.671v34.749h6.144
				v-21.503c0-3.199,0.768-8.959,8-8.959c3.071,0,5.248,1.024,6.527,2.944c1.344,1.983,1.344,4.543,1.344,6.975v20.543h6.144
				v-20.479c0-3.903,0-7.615-2.048-10.56C141.723,757.954,138.779,755.97,133.468,755.97z M178.024,762.306
				c-1.472-4.096-4.799-6.336-10.175-6.336c-9.599,0-15.039,7.168-15.039,18.238c0,11.136,5.44,18.048,14.591,18.048
				c5.568,0,9.536-2.561,10.688-6.912l1.344,6.144h4.672v-49.916h-6.08V762.306z M168.745,787.52c-6.719,0-9.408-5.632-9.408-13.439
				c0-7.743,2.688-13.374,9.472-13.374c6.719,0,9.407,5.631,9.407,13.374C178.216,781.888,175.528,787.52,168.745,787.52z
				 M217.665,782.528v-12.991c0-2.752,0-6.464-1.855-9.088c-2.24-3.264-6.655-4.224-11.519-4.224c-6.144,0-10.24,1.536-10.24,1.536
				v4.928h0.512c0,0,4.095-1.792,8.959-1.792c3.52,0,5.76,0.96,6.912,2.752s1.152,3.84,1.152,7.615c0,0-1.472-0.128-3.583-0.128
				c-11.647,0-17.151,3.904-17.151,10.751c0,6.08,4.288,10.112,10.943,10.112c5.184,0,9.023-2.497,10.24-6.4
				c0.384,4.735,3.007,6.208,6.976,6.208c2.304,0,3.968-0.513,3.968-0.513v-4.415c0,0-1.088,0.256-2.048,0.256
				C217.665,787.136,217.665,784.512,217.665,782.528z M211.585,776.064c0,1.6,0,4.735-1.344,7.296
				c-1.408,2.688-4.16,3.967-6.976,3.967c-3.904,0-6.016-2.432-6.016-5.695c0-6.336,7.871-6.336,12.288-6.336h2.047V776.064z
				 M234.422,765.121c0-2.496,2.112-4.224,6.08-4.224c3.903,0,7.935,1.664,7.935,1.664h0.512v-5.056c0,0-3.52-1.28-8.127-1.28
				c-7.936,0-12.543,3.776-12.543,9.728c0,11.008,15.999,8.96,15.999,16.575c0,2.88-2.24,4.799-6.463,4.799
				c-4.417,0-9.152-2.111-9.152-2.111h-0.512v5.056c0,0,3.52,1.729,9.087,1.729c7.488,0,13.184-3.072,13.184-10.112
				C250.421,770.049,234.422,771.969,234.422,765.121z M434.144,746.37c-5.375-3.007-11.391-3.007-16.126-3.007h-12.223v48.124
				h12.223c4.16,0,10.367,0,15.743-2.943c6.335-3.456,10.368-10.239,10.368-21.183C444.127,756.354,440.031,749.698,434.144,746.37z
				 M430.048,784.512c-3.84,2.24-8.255,2.24-11.647,2.24h-6.399v-38.653h6.399c3.392,0,7.68,0,11.583,2.239
				c5.632,3.2,7.551,9.344,7.551,17.087C437.536,775.232,435.616,781.312,430.048,784.512z M454.882,742.595
				c-2.432,0-3.904,1.729-3.904,3.84s1.472,3.84,3.839,3.84c2.432,0,3.904-1.729,3.904-3.84S457.25,742.595,454.882,742.595z
				 M451.81,791.487h6.08v-34.749h-6.08V791.487z M471.521,765.121c0-2.496,2.112-4.224,6.08-4.224c3.904,0,7.935,1.664,7.935,1.664
				h0.512v-5.056c0,0-3.52-1.28-8.127-1.28c-7.936,0-12.543,3.776-12.543,9.728c0,11.008,15.999,8.96,15.999,16.575
				c0,2.88-2.24,4.799-6.463,4.799c-4.416,0-9.152-2.111-9.152-2.111h-0.512v5.056c0,0,3.52,1.729,9.087,1.729
				c7.487,0,13.183-3.072,13.183-10.112C487.52,770.049,471.521,771.969,471.521,765.121z M493.115,774.145
				c0,11.135,5.952,17.855,16.703,17.855c4.479,0,7.679-1.152,7.679-1.152v-5.056h-0.512c0,0-3.263,1.472-6.911,1.472
				c-6.72,0-10.431-5.184-10.431-13.311c0-8.128,3.711-12.991,10.431-12.991c3.712,0,6.911,1.472,6.911,1.472h0.512v-5.056
				c0,0-3.264-1.152-7.679-1.152C499.066,756.226,493.115,763.01,493.115,774.145z M545.72,778.24c0,3.264-0.639,8.959-7.679,8.959
				c-3.328,0-5.183-1.279-6.335-2.943c-1.28-1.792-1.343-3.903-1.343-6.976v-20.542h-6.144v20.479c0,4.415,0.128,7.935,2.048,10.687
				c1.728,2.496,4.672,4.353,9.6,4.353c5.951,0,9.151-2.688,10.047-6.72l1.28,5.951h4.672v-34.749h-6.145V778.24z M565.771,765.121
				c0-2.496,2.112-4.224,6.08-4.224c3.903,0,7.936,1.664,7.936,1.664h0.511v-5.056c0,0-3.52-1.28-8.127-1.28
				c-7.936,0-12.543,3.776-12.543,9.728c0,11.008,16,8.96,16,16.575c0,2.88-2.24,4.799-6.464,4.799
				c-4.416,0-9.151-2.111-9.151-2.111H559.5v5.056c0,0,3.521,1.729,9.087,1.729c7.487,0,13.183-3.072,13.183-10.112
				C581.771,770.049,565.771,771.969,565.771,765.121z M594.008,765.121c0-2.496,2.112-4.224,6.08-4.224
				c3.903,0,7.935,1.664,7.935,1.664h0.512v-5.056c0,0-3.52-1.28-8.127-1.28c-7.936,0-12.543,3.776-12.543,9.728
				c0,11.008,15.999,8.96,15.999,16.575c0,2.88-2.24,4.799-6.463,4.799c-4.417,0-9.152-2.111-9.152-2.111h-0.512v5.056
				c0,0,3.52,1.729,9.087,1.729c7.488,0,13.184-3.072,13.184-10.112C610.007,770.049,594.008,771.969,594.008,765.121z
				 M620.088,742.595c-2.432,0-3.904,1.729-3.904,3.84s1.472,3.84,3.84,3.84c2.431,0,3.903-1.729,3.903-3.84
				S622.456,742.595,620.088,742.595z M617.016,791.487h6.08v-34.749h-6.08V791.487z M646.646,755.905
				c-10.303,0-16.126,6.656-16.126,18.303c0,11.712,5.952,18.111,16.063,18.111c10.303,0,16.126-6.655,16.126-18.303
				C662.709,762.306,656.757,755.905,646.646,755.905z M646.646,787.775c-6.463,0-9.599-4.8-9.599-13.695
				c0-8.703,3.072-13.631,9.536-13.631s9.599,4.8,9.599,13.695C656.182,782.848,653.11,787.775,646.646,787.775z M686.454,755.97
				c-6.08,0-9.216,2.624-10.176,6.72l-1.28-5.951h-4.671v34.749h6.144v-21.503c0-3.199,0.768-8.959,7.999-8.959
				c3.072,0,5.248,1.024,6.527,2.944c1.344,1.983,1.344,4.543,1.344,6.975v20.543h6.145v-20.479c0-3.903,0-7.615-2.049-10.56
				C694.709,757.954,691.765,755.97,686.454,755.97z M712.067,765.121c0-2.496,2.111-4.224,6.079-4.224
				c3.903,0,7.936,1.664,7.936,1.664h0.512v-5.056c0,0-3.52-1.28-8.128-1.28c-7.935,0-12.542,3.776-12.542,9.728
				c0,11.008,15.998,8.96,15.998,16.575c0,2.88-2.239,4.799-6.464,4.799c-4.415,0-9.15-2.111-9.15-2.111h-0.512v5.056
				c0,0,3.52,1.729,9.087,1.729c7.487,0,13.183-3.072,13.183-10.112C728.065,770.049,712.067,771.969,712.067,765.121z
				 M842.381,743.363l-17.534,48.124h5.694l4.736-13.438h19.198l4.544,13.438h6.656l-17.023-48.124H842.381z M836.941,773.312
				l8.128-23.166l7.807,23.166H836.941z M876.896,765.121c0-2.496,2.112-4.224,6.079-4.224c3.904,0,7.937,1.664,7.937,1.664h0.512
				v-5.056c0,0-3.52-1.28-8.128-1.28c-7.935,0-12.543,3.776-12.543,9.728c0,11.008,15.999,8.96,15.999,16.575
				c0,2.88-2.24,4.799-6.464,4.799c-4.415,0-9.15-2.111-9.15-2.111h-0.513v5.056c0,0,3.52,1.729,9.088,1.729
				c7.487,0,13.183-3.072,13.183-10.112C892.895,770.049,876.896,771.969,876.896,765.121z M905.133,765.121
				c0-2.496,2.111-4.224,6.079-4.224c3.903,0,7.936,1.664,7.936,1.664h0.512v-5.056c0,0-3.52-1.28-8.128-1.28
				c-7.935,0-12.543,3.776-12.543,9.728c0,11.008,15.999,8.96,15.999,16.575c0,2.88-2.24,4.799-6.463,4.799
				c-4.416,0-9.151-2.111-9.151-2.111h-0.512v5.056c0,0,3.52,1.729,9.087,1.729c7.487,0,13.183-3.072,13.183-10.112
				C921.131,770.049,905.133,771.969,905.133,765.121z M928.141,791.487h6.079v-34.749h-6.079V791.487z M931.212,742.595
				c-2.432,0-3.903,1.729-3.903,3.84s1.472,3.84,3.84,3.84c2.432,0,3.903-1.729,3.903-3.84S933.58,742.595,931.212,742.595z
				 M965.2,758.594c-2.24-1.729-5.376-2.688-9.151-2.688c-8.127,0-13.183,4.288-13.183,11.136c0,4.48,2.111,7.872,5.759,9.663
				c-1.92,0.385-6.271,1.792-6.271,6.271c0,4.288,4.032,5.568,4.224,5.632c-0.319,0.064-6.783,1.024-6.783,7.359
				c0,5.504,4.8,8.832,15.295,8.832c11.647,0,17.982-4.096,17.982-11.392c0-8.768-9.15-8.768-12.99-8.768h-6.528
				c-1.92,0-5.119,0-5.119-3.136c0-2.367,1.792-3.392,2.88-3.84c1.408,0.385,3.008,0.576,4.735,0.576
				c8.063,0,13.183-4.287,13.183-11.135c0-2.561-0.768-4.8-2.048-6.592c0.385-0.256,1.345-0.704,3.328-0.704
				c1.536,0,2.688,0.256,2.688,0.256v-5.248h-0.769C970.319,754.817,966.736,754.817,965.2,758.594z M949.009,789.632h10.432
				c2.304,0,7.424,0.063,7.424,4.479c0,4.031-4.16,6.335-11.584,6.335c-6.719,0-9.599-1.919-9.599-5.504
				C945.682,791.104,949.009,789.632,949.009,789.632z M956.049,773.889c-4.543,0-6.976-2.56-6.976-6.783
				c0-4.288,2.433-6.848,6.976-6.848c4.479,0,6.976,2.56,6.976,6.848C963.024,771.329,960.528,773.889,956.049,773.889z
				 M995.523,755.97c-6.08,0-9.216,2.624-10.176,6.72l-1.279-5.951h-4.672v34.749h6.144v-21.503c0-3.199,0.768-8.959,7.999-8.959
				c3.072,0,5.248,1.024,6.528,2.944c1.344,1.983,1.344,4.543,1.344,6.975v20.543h6.144v-20.479c0-3.903,0-7.615-2.048-10.56
				C1003.778,757.954,1000.835,755.97,995.523,755.97z M1053.582,755.97c-5.632,0-8.896,2.433-10.367,7.104
				c-1.472-4.224-4.288-7.104-10.623-7.104c-6.399,0-9.088,2.944-9.92,6.72l-1.279-5.951h-4.672v34.749h6.144v-21.503
				c0-3.136,0.769-8.959,7.552-8.959c3.136,0,5.055,1.216,6.144,2.944c1.151,1.855,1.279,3.903,1.279,6.975v20.543h6.144v-21.503
				c0-3.136,0.769-8.959,7.552-8.959c3.136,0,5.056,1.216,6.144,2.944c1.151,1.855,1.28,3.903,1.28,6.975v20.543h6.144v-20.479
				c0-4.416-0.129-7.808-1.984-10.56C1061.646,758.21,1058.894,755.97,1053.582,755.97z M1099.233,761.922
				c-2.24-3.904-6.207-6.017-11.52-6.017c-9.6,0-15.23,6.912-15.23,18.303c0,5.824,1.472,10.496,4.415,13.504
				c2.433,2.495,6.208,4.288,12.544,4.288c5.823,0,10.111-1.537,10.111-1.537v-4.927h-0.513c0,0-4.544,1.855-9.279,1.855
				c-7.231,0-10.879-4.288-10.879-11.839h22.591C1101.474,771.009,1101.474,765.825,1099.233,761.922z M1078.883,771.2
				c0.513-6.655,3.071-10.814,8.64-10.814c5.312,0,7.615,3.84,7.615,10.814H1078.883z M1125.173,755.97
				c-6.08,0-9.216,2.624-10.176,6.72l-1.28-5.951h-4.672v34.749h6.144v-21.503c0-3.199,0.769-8.959,8-8.959
				c3.072,0,5.247,1.024,6.527,2.944c1.344,1.983,1.344,4.543,1.344,6.975v20.543h6.144v-20.479c0-3.903,0-7.615-2.048-10.56
				C1133.428,757.954,1130.483,755.97,1125.173,755.97z M1155.233,745.73l-6.079,1.856v9.663h-6.528v4.607h6.528v17.599
				c0,4.096,0,6.72,1.407,8.896c1.535,2.368,4.544,3.648,8.896,3.648c3.392,0,5.888-0.769,5.888-0.769v-4.864h-0.513
				c0,0-2.239,0.96-4.735,0.96c-1.855,0-3.328-0.575-4.096-1.983s-0.768-3.136-0.768-5.951v-17.535h10.111v-4.607h-10.111V745.73z
				 M1177.575,765.121c0-2.496,2.111-4.224,6.08-4.224c3.903,0,7.935,1.664,7.935,1.664h0.512v-5.056c0,0-3.52-1.28-8.127-1.28
				c-7.936,0-12.543,3.776-12.543,9.728c0,11.008,15.999,8.96,15.999,16.575c0,2.88-2.24,4.799-6.463,4.799
				c-4.417,0-9.152-2.111-9.152-2.111h-0.512v5.056c0,0,3.52,1.729,9.087,1.729c7.487,0,13.184-3.072,13.184-10.112
				C1193.574,770.049,1177.575,771.969,1177.575,765.121z M1391.191,791.487h6.208V771.2h17.79v-4.863h-17.79v-18.11h20.029v-4.863
				h-26.237V791.487z M1427.356,742.595c-2.432,0-3.903,1.729-3.903,3.84s1.472,3.84,3.84,3.84c2.432,0,3.903-1.729,3.903-3.84
				S1429.725,742.595,1427.356,742.595z M1424.285,791.487h6.079v-34.749h-6.079V791.487z M1439.785,791.487h6.079v-49.916h-6.079
				V791.487z M1480.23,761.922c-2.239-3.904-6.208-6.017-11.519-6.017c-9.6,0-15.231,6.912-15.231,18.303
				c0,5.824,1.472,10.496,4.416,13.504c2.432,2.495,6.208,4.288,12.543,4.288c5.823,0,10.111-1.537,10.111-1.537v-4.927h-0.512
				c0,0-4.544,1.855-9.279,1.855c-7.231,0-10.88-4.288-10.88-11.839h22.591C1482.471,771.009,1482.471,765.825,1480.23,761.922z
				 M1459.88,771.2c0.512-6.655,3.072-10.814,8.64-10.814c5.312,0,7.616,3.84,7.616,10.814H1459.88z M1494.67,765.121
				c0-2.496,2.112-4.224,6.079-4.224c3.904,0,7.936,1.664,7.936,1.664h0.513v-5.056c0,0-3.521-1.28-8.128-1.28
				c-7.936,0-12.543,3.776-12.543,9.728c0,11.008,15.999,8.96,15.999,16.575c0,2.88-2.24,4.799-6.464,4.799
				c-4.415,0-9.151-2.111-9.151-2.111h-0.512v5.056c0,0,3.52,1.729,9.087,1.729c7.488,0,13.184-3.072,13.184-10.112
				C1510.669,770.049,1494.67,771.969,1494.67,765.121z"/>
		</g>
	</g>
</g>
<g id="Layer_2">
	<path fill="#35373A" d="M352.368,209.159h-2.52c0,0-20.475,8.82-44.415,8.82c-52.29,0-74.655-41.58-74.655-90.719
		c0-48.51,22.05-88.2,74.025-88.2c24.57,0,45.044,8.82,45.044,8.82h2.52V15.12c0,0-21.42-7.56-51.03-7.56
		c-80.64,0-115.289,54.809-115.289,120.959c0,66.149,34.649,120.959,115.289,120.959c29.61,0,51.03-7.56,51.03-7.56V209.159z"/>
	<path fill="#35373A" d="M544.388,160.019c0-59.85-31.185-90.719-84.419-90.719c-54.495,0-85.05,32.13-85.05,91.35
		c0,59.85,31.185,90.719,84.419,90.719C513.833,251.369,544.388,219.239,544.388,160.019z M459.653,221.759
		c-27.72,0-40.635-22.365-40.635-61.424c0-37.17,11.655-61.425,40.635-61.425c27.72,0,40.635,22.365,40.635,61.425
		C500.288,197.504,488.633,221.759,459.653,221.759z"/>
	<path fill="#35373A" d="M726.296,246.959V73.71h-41.58v105.839c0,13.23-2.52,37.8-31.5,37.8c-12.6,0-22.68-4.41-28.35-12.6
		s-5.67-18.271-5.67-28.35V73.71h-41.58v102.059c0,20.791,0,39.06,10.081,53.55c8.189,11.97,23.31,21.42,47.879,21.42
		c29.61,0,45.989-13.86,51.03-33.39l7.56,29.61H726.296z"/>
	<path fill="#35373A" d="M768.88,73.71v173.25h41.58v-105.84c0-13.859,3.78-37.8,34.965-37.8c13.545,0,21.735,4.41,27.405,12.6
		c5.67,8.19,5.67,18.27,5.67,28.35v102.69h41.579v-102.06c0-20.79,0-37.8-10.079-52.29c-8.19-11.97-23.311-22.68-50.085-22.68
		c-29.925,0-45.675,13.23-51.346,33.39l-7.56-29.609H768.88z"/>
	<path fill="#35373A" d="M1077.008,211.049h-2.52c0,0-15.75,6.93-32.761,6.93c-30.239,0-45.359-22.05-45.359-57.96
		c0-35.909,15.12-57.33,45.675-57.33c17.325,0,32.445,6.93,32.445,6.93h2.52v-33.39c0,0-15.75-5.04-37.8-5.04
		c-57.329,0-86.939,34.02-86.939,89.459c0,55.44,29.61,88.83,87.255,88.83c22.364,0,37.484-5.04,37.484-5.04V211.049z"/>
	<path fill="#35373A" d="M1130.337,0c-14.806,0-24.886,10.71-24.886,24.57c0,13.86,10.08,24.57,24.886,24.57
		c14.805,0,24.885-10.71,24.885-24.57C1155.222,10.71,1145.142,0,1130.337,0z M1109.861,73.71v173.25h40.95V73.71H1109.861z"/>
	<path fill="#35373A" d="M1193.365,1.26v245.699h40.949V1.26H1193.365z"/>
	<path fill="#35373A" d="M1382.551,77.49c0,0-18.585-6.3-43.155-6.3c-43.784,0-68.354,19.845-68.354,51.345
		c0,56.384,78.12,47.25,78.12,78.434c0,10.081-8.19,17.641-27.091,17.641c-22.049,0-48.509-10.71-48.509-10.71h-2.521v33.39
		c0,0,18.899,8.19,48.825,8.19c41.579,0,70.874-16.065,70.874-52.919c0-59.85-78.119-51.975-78.119-78.75
		c0-8.82,8.189-15.75,25.83-15.75c19.529,0,41.579,8.819,41.579,8.819h2.521V77.49z"/>
	<path fill-rule="evenodd" clip-rule="evenodd" fill="#3CB18A" d="M125.333,662.655c-66.275,0-120-53.727-120-120
		c0-66.274,53.726-120,120-120c66.273,0,120,53.726,120,120C245.333,608.929,191.607,662.655,125.333,662.655z M125.333,432.655
		c-60.751,0-110,49.249-110,110s49.249,110,110,110c60.751,0,110-49.249,110-110S186.084,432.655,125.333,432.655z M185.333,547.655
		h-60c-2.762,0-5-2.238-5-5v-80c0-2.762,2.239-5.001,5-5.001c2.761,0,5,2.239,5,5.001v75h55c2.762,0,5,2.238,5,5
		S188.095,547.655,185.333,547.655z"/>
	<path fill-rule="evenodd" clip-rule="evenodd" fill="#3CB18A" d="M667.333,616.655h-86.667l-61.333,46v-46h-52
		c-11.046,0-20-8.954-20-20v-144c0-11.046,8.955-20,20-20h200c11.046,0,20,8.954,20,20v144
		C687.333,607.701,678.379,616.655,667.333,616.655z M677.333,452.655c0-5.522-4.478-10-10-10h-200c-5.522,0-10,4.478-10,10v144
		c0,5.522,4.478,10,10,10h62v36l48-36h90c5.522,0,10-4.478,10-10V452.655z M632.333,529.655h-130c-2.761,0-5-2.239-5-5
		c0-2.762,2.239-5,5-5h130c2.761,0,5,2.238,5,5C637.333,527.416,635.095,529.655,632.333,529.655z M632.333,489.655h-130
		c-2.761,0-5-2.239-5-5c0-2.762,2.239-5,5-5h130c2.761,0,5,2.238,5,5C637.333,487.416,635.095,489.655,632.333,489.655z
		 M502.333,559.655h60c2.762,0,5,2.238,5,5c0,2.761-2.239,5-5,5h-60c-2.761,0-5-2.239-5-5
		C497.333,561.894,499.572,559.655,502.333,559.655z"/>
	<path fill-rule="evenodd" clip-rule="evenodd" fill="#3CB18A" d="M1119.333,547.655h-130c-2.762,0-5-2.238-5-5s2.238-5,5-5h130
		c2.761,0,5,2.238,5,5S1122.094,547.655,1119.333,547.655z M1119.333,467.654h-130c-2.762,0-5-2.237-5-4.999s2.238-5.001,5-5.001
		h130c2.761,0,5,2.239,5,5.001S1122.094,467.654,1119.333,467.654z M917.887,485.979c-1.953,1.952-5.118,1.952-7.071,0
		l-14.963-14.808c-1.952-1.952-1.952-5.118,0-7.07c1.953-1.953,5.118-1.953,7.071,0l11.416,11.297l36.402-36.261
		c1.952-1.952,5.118-1.952,7.071,0c1.953,1.953,1.953,5.119,0,7.071L917.887,485.979z M904.333,517.655h30c5.522,0,10,4.477,10,10
		v30c0,5.522-4.478,10-10,10h-30c-5.523,0-10-4.478-10-10v-30C894.333,522.132,898.81,517.655,904.333,517.655z M904.333,557.655h30
		v-30h-30V557.655z M904.333,597.655h30c5.522,0,10,4.477,10,10v30c0,5.522-4.478,10-10,10h-30c-5.523,0-10-4.478-10-10v-30
		C894.333,602.132,898.81,597.655,904.333,597.655z M904.333,637.655h30v-30h-30V637.655z M989.333,617.655h130c2.761,0,5,2.238,5,5
		c0,2.761-2.239,5-5,5h-130c-2.762,0-5-2.239-5-5C984.333,619.894,986.571,617.655,989.333,617.655z"/>
	<path fill-rule="evenodd" clip-rule="evenodd" fill="#3CB18A" d="M1523.333,658.655h-144c-11.046,0-20-8.954-20-20v-192
		c0-11.046,8.954-20,20-20h90l0,0h4l0,0l0,0l70,70l0,0v4l0,0v138C1543.333,649.701,1534.379,658.655,1523.333,658.655z
		 M1369.333,446.655v192c0,5.523,4.478,10,10,10h144c5.522,0,10-4.477,10-10v-132h-50c-11.046,0-20-8.954-20-20v-50h-84
		C1373.811,436.655,1369.333,441.132,1369.333,446.655z M1473.333,440.655v46c0,5.522,4.478,10,10,10h46L1473.333,440.655z"/>
</g>
<g id="Layer_3">
</g>
</svg>
